<?xml version="1.0" encoding="UTF-8" standalone="no"?>
<!-- Created with Inkscape (http://www.inkscape.org/) -->

<svg
   width="86.667038mm"
   height="16.854374mm"
   viewBox="0 0 86.667038 16.854374"
   version="1.1"
   id="svg1"
   xml:space="preserve"
   inkscape:version="1.4.3 (0d15f75042, 2025-12-25)"
   sodipodi:docname="CUCHARA.svg"
   xmlns:inkscape="http://www.inkscape.org/namespaces/inkscape"
   xmlns:sodipodi="http://sodipodi.sourceforge.net/DTD/sodipodi-0.dtd"
   xmlns="http://www.w3.org/2000/svg"
   xmlns:svg="http://www.w3.org/2000/svg"><sodipodi:namedview
     id="namedview1"
     pagecolor="#ffffff"
     bordercolor="#000000"
     borderopacity="0.25"
     inkscape:showpageshadow="2"
     inkscape:pageopacity="0.0"
     inkscape:pagecheckerboard="0"
     inkscape:deskcolor="#d1d1d1"
     inkscape:document-units="mm"
     inkscape:zoom="0.8882477"
     inkscape:cx="130.5942"
     inkscape:cy="61.356759"
     inkscape:window-width="1358"
     inkscape:window-height="734"
     inkscape:window-x="0"
     inkscape:window-y="0"
     inkscape:window-maximized="0"
     inkscape:current-layer="layer1" /><defs
     id="defs1"><clipPath
       clipPathUnits="userSpaceOnUse"
       id="clipPath7"><path
         id="path8"
         style="fill:#ffcc00;stroke-width:0.3"
         d="m 102.92383,251.49318 h 42.2534 v 11.72747 h -42.2534 z" /></clipPath><clipPath
       clipPathUnits="userSpaceOnUse"
       id="clipPath14"><path
         id="path15"
         style="fill:#ffcc00;stroke-width:0.3"
         d="M 5.2015413,275.42979 H 47.454952 v 11.72747 H 5.2015413 Z" /></clipPath></defs><g
     inkscape:label="Layer 1"
     inkscape:groupmode="layer"
     id="layer1"
     transform="translate(-115.80988,-248.92898)"><path
       style="baseline-shift:baseline;display:inline;overflow:visible;fill:#ffffff;fill-opacity:1;stroke:#000000;stroke-width:0.9;stroke-dasharray:none;enable-background:accumulate;stop-color:#000000"
       d="m 128.98692,264.96515 c -6.66508,-1.05046 -10.42192,-3.03699 -12.06841,-6.38149 -0.72932,-1.48146 -0.79692,-1.77756 -0.4762,-2.08608 0.30227,-0.29078 3.43591,-0.3938 16.38107,-0.53853 l 16.00729,-0.17897 6.35,-1.14968 c 17.64579,-3.19481 33.15047,-5.15272 41.53957,-5.24558 5.55213,-0.0615 6.29807,0.34514 4.29957,2.34365 -1.34088,1.34087 -0.89025,1.27495 -11.7079,1.71256 -14.15774,0.57273 -20.88343,1.32673 -33.46978,3.75221 l -5.68855,1.09622 -2.77812,1.96228 c -6.43374,4.54435 -11.39403,5.81579 -18.38854,4.71341 z"
       id="path6" /><path
       style="baseline-shift:baseline;display:inline;overflow:visible;fill:#ffcc00;fill-opacity:1;stroke:#000000;stroke-width:0.9;stroke-dasharray:none;enable-background:accumulate;stop-color:#000000"
       d="m 19.966092,281.05019 c -6.66508,-1.05046 -10.4219199,-3.03699 -12.0684099,-6.38149 -0.72932,-1.48146 -0.79692,-1.77756 -0.4762,-2.08608 0.30227,-0.29078 3.4359099,-0.3938 16.3810699,-0.53853 l 16.00729,-0.17897 6.35,-1.14968 c 17.64579,-3.19481 33.15047,-5.15272 41.53957,-5.24558 5.55213,-0.0615 6.29807,0.34514 4.29957,2.34365 -1.34088,1.34087 -0.89025,1.27495 -11.7079,1.71256 -14.15774,0.57273 -20.88343,1.32673 -33.46978,3.75221 l -5.68855,1.09622 -2.77812,1.96228 c -6.43374,4.54435 -11.39403,5.81579 -18.38854,4.71341 z"
       id="path13"
       clip-path="url(#clipPath14)"
       transform="translate(109.02083,-16.08504)" /></g></svg>
